<?xml version="1.0" encoding="utf-8"?>
<!-- Generator: Adobe Illustrator 23.0.1, SVG Export Plug-In . SVG Version: 6.00 Build 0)  -->
<svg version="1.1" id="Layer_1" xmlns="http://www.w3.org/2000/svg" xmlns:xlink="http://www.w3.org/1999/xlink" x="0px" y="0px"
	 viewBox="0 0 350 102" style="enable-background:new 0 0 350 102;" xml:space="preserve">
<style type="text/css">
	.st0{fill:#0000DC;}
</style>
<path class="st0" d="M46.9,1h15.7v99.1H46.9V1z M41.2,1h5.2l-9.6,99.1h-5.2L41.2,1z M16,1h5.3l9.6,99.1h-5.3L16,1z M0,1h15.5v99.1H0
	V1z"/>
<path class="st0" d="M121,1v75.8c0,5.5,4.8,9.3,9.3,9.3c4.6,0,9.4-3.7,9.4-9.3V1h15.5v76.5c0,13.2-11.9,23.5-25,23.5
	c-12.8,0-25-10.3-25-23.5V1H121z"/>
<path class="st0" d="M255.6,100.1h-15.5V1h15.5V100.1z M224.8,1l14.8,99.1h-5.3L219.4,1H224.8z M218.9,100.1h-15.7V1h15.7V100.1z"/>
<path class="st0" d="M320.7,94.8V6.5h-13.4V1h42.4v5.5h-13.5v88.2h13.5v5.3h-42.4v-5.3H320.7z"/>
</svg>
