<?xml version="1.0" encoding="utf-8"?>
<!-- Generator: Adobe Illustrator 23.0.1, SVG Export Plug-In . SVG Version: 6.00 Build 0)  -->
<svg version="1.1" id="Vrstva_1" xmlns="http://www.w3.org/2000/svg" xmlns:xlink="http://www.w3.org/1999/xlink" x="0px" y="0px"
	 viewBox="0 0 200 51" style="enable-background:new 0 0 200 51;" xml:space="preserve">
<style type="text/css">
	.st0{fill:#0000DC;}
</style>
<path class="st0" d="M0,0.2h3.3V21H0V0.2z M3.4,0.2h1.1l2,20.8H5.4L3.4,0.2z M8.6,0.2h1.1L7.7,21H6.6L8.6,0.2z M9.9,0.2h3.3V21H9.9
	V0.2z M27.4,0.2L25.8,12H29L27.4,0.2l3.2,0l3,20.8h-3.4l-0.8-6h-4.1l-0.7,6h-3.3l3-20.8C24.3,0.2,27.4,0.2,27.4,0.2z M42.9,16.3V15
	h3.3v1.1c0,1.1,1,1.9,2,1.9s2-0.8,2-1.9v-1.9c0-1.4-1.2-1.9-2.6-2.2c-2.6-0.5-4.7-2.1-4.7-4.9V5c0-2.8,2.6-5,5.3-5s5.3,2.2,5.3,5
	v1.3h-3.3V5.1c0-1.1-1-1.9-2-1.9s-2,0.8-2,1.9v1.9c0,1.4,1.3,1.8,2.5,2c2.7,0.5,4.8,2.5,4.8,5.1v2.2c0,2.8-2.6,5-5.3,5
	S42.9,19,42.9,16.3z M69,0.2L67.4,12h3.3L69,0.2l3.2,0l3,20.8h-3.4L71,15h-4.1l-0.7,6h-3.3l3-20.8C65.9,0.2,69,0.2,69,0.2z
	 M90.6,0.2c2.7,0,5,2.3,5,5v2.8c0,1.7-0.9,3.4-2.5,4.3l3.5,8.8H93l-3-8.1h-1.6v8.2h-3.3V0.3L90.6,0.2L90.6,0.2z M92.4,7.2V5.4
	c0-1.3-1.1-2.2-2.4-2.2h-1.5v6.5H90C91.5,9.7,92.4,9.1,92.4,7.2z M104.5,0.2h3.4l2.8,8.4l2.8-8.4h3.4l-4.6,12.9v7.8H109v-7.8
	L104.5,0.2z M130.3,0.2V21h-3.3V0.2C127.1,0.2,130.3,0.2,130.3,0.2z M134.3,0.2h3.5L134,10.4l4.1,10.6h-3.6l-4-10.5L134.3,0.2z
	 M152.2,0.1c2.7,0,5.3,2.2,5.3,5.1v11.1c0,2.9-2.5,5.1-5.3,5.1c-2.7,0-5.3-2.2-5.3-5.1V5.1C147,2.2,149.6,0.1,152.2,0.1z M152.2,3.2
	c-1,0-2,0.7-2,1.9v11.1c0,1.2,1,1.9,2,1.9c1,0,2-0.7,2-1.9v-11C154.2,3.9,153.2,3.2,152.2,3.2z M170.3,0.2l2.7,20.8h-3.1L167,0.2
	C167,0.2,170.3,0.2,170.3,0.2z M179.1,0.2L176.2,21h-3.1l2.7-20.8C175.8,0.2,179.1,0.2,179.1,0.2z M193.9,0.2L192.3,12h3.3
	L193.9,0.2l3.2,0l3,20.8h-3.4l-0.8-6h-4.1l-0.8,6h-3.3l3-20.8C190.7,0.2,193.9,0.2,193.9,0.2z M4.6,29.9v15.9c0,1.1,1,1.9,2,1.9
	s2-0.8,2-1.9V29.9h3.3V46c0,2.8-2.5,5-5.3,5c-2.7,0-5.3-2.2-5.3-5V29.9H4.6z M25.2,29.9v20.8h-3.3V29.9
	C21.9,29.9,25.2,29.9,25.2,29.9z M26.4,29.9l3.1,20.8h-1.1l-3.1-20.8C25.3,29.9,26.4,29.9,26.4,29.9z M32.9,29.9v20.8h-3.3V29.9
	C29.6,29.9,32.9,29.9,32.9,29.9z M46.5,49.7V31.1h-2.8v-1.2h8.9v1.2h-2.8v18.5h2.8v1.2h-8.9v-1.2C43.7,49.7,46.5,49.7,46.5,49.7z
	 M66.2,29.9l2.7,20.8h-3.1l-2.9-20.8C62.9,29.9,66.2,29.9,66.2,29.9z M75,29.9l-2.9,20.8h-3.1l2.7-20.8C71.8,29.9,75,29.9,75,29.9z
	 M85.1,29.9H95v3h-6.6v5.5h6.3v3h-6.3v6.4H95v3h-9.9V29.9z M111.4,29.9c2.7,0,5,2.3,5,5v2.8c0,1.7-0.9,3.4-2.5,4.3l3.5,8.8h-3.6
	l-3-8.1h-1.6v8.2h-3.3V30L111.4,29.9L111.4,29.9z M113.2,37v-1.9c0-1.3-1.1-2.2-2.4-2.2h-1.5v6.5h1.5
	C112.3,39.4,113.2,38.9,113.2,37z M126,47.8l7.4-14.9h-6.8v-3H137v3l-7.5,14.9h7.4v3h-11L126,47.8L126,47.8z M150.5,49.7V31.1h-2.8
	v-1.2h8.9v1.2h-2.8v18.5h2.8v1.2h-8.9v-1.2C147.8,49.7,150.5,49.7,150.5,49.7z M166.7,32.9v-3h12.7v3h-4.8v17.8h-3.3V32.9
	C171.4,32.9,166.7,32.9,166.7,32.9z M193.9,29.9l-1.6,11.8h3.3L193.9,29.9l3.2,0l3,20.8h-3.4l-0.8-6h-4.1l-0.8,6h-3.3l3-20.8
	C190.7,29.9,193.9,29.9,193.9,29.9z"/>
</svg>
